<?xml version="1.0" encoding="UTF-8" standalone="no"?>
<svg
   width="961"
   height="213"
   viewBox="0 0 961 213"
   fill="none"
   version="1.1"
   id="svg2906"
   sodipodi:docname="logo-uniswap.svg"
   inkscape:version="1.2.1 (9c6d41e410, 2022-07-14)"
   xmlns:inkscape="http://www.inkscape.org/namespaces/inkscape"
   xmlns:sodipodi="http://sodipodi.sourceforge.net/DTD/sodipodi-0.dtd"
   xmlns="http://www.w3.org/2000/svg"
   xmlns:svg="http://www.w3.org/2000/svg">
  <defs
     id="defs2910" />
  <sodipodi:namedview
     id="namedview2908"
     pagecolor="#ffffff"
     bordercolor="#000000"
     borderopacity="0.25"
     inkscape:showpageshadow="2"
     inkscape:pageopacity="0.0"
     inkscape:pagecheckerboard="0"
     inkscape:deskcolor="#d1d1d1"
     showgrid="false"
     inkscape:zoom="1.6004162"
     inkscape:cx="579.22432"
     inkscape:cy="119.96879"
     inkscape:window-width="1920"
     inkscape:window-height="1011"
     inkscape:window-x="0"
     inkscape:window-y="0"
     inkscape:window-maximized="1"
     inkscape:current-layer="svg2906" />
  <path
     fill-rule="evenodd"
     clip-rule="evenodd"
     d="M 3.75893,4.70717 C 27.7387,34.1049 54.0679,71.0374 58.3265,77.011 c 0.2271,0.3185 0.3914,0.549 0.4893,0.6856 2.2701,3.1694 4.1442,5.5254 5.5674,7.3146 l 2e-4,2e-4 v 0 c 3.1595,3.9718 4.0969,5.1504 2.2117,6.233 -1.5207,0.873 -3.0894,1.1609 -4.6547,1.1609 -1.7705,0 -3.7652,-0.8612 -5.2176,-2.2528 C 55.6962,89.1691 48.6716,78.864 39.1062,63.8726 31.7874,52.4016 25.6624,42.8859 25.4953,42.7266 25.109,42.3581 25.1156,42.3706 38.36,66.307 c 8.3163,15.0305 14.005,26.1377 14.005,26.8483 0,1.4454 -0.3905,2.2052 -2.1558,4.1941 -2.9428,3.3166 -4.2584,7.0426 -5.208,14.7536 -1.0646,8.644 -4.0582,14.751 -12.3544,25.201 -4.8563,6.118 -5.6509,7.239 -6.8763,9.705 -1.5434,3.105 -1.9679,4.844 -2.1399,8.765 -0.1818,4.146 0.1723,6.824 1.4262,10.787 1.0978,3.47 2.2436,5.762 5.1729,10.345 2.528,3.954 3.9836,6.893 3.9836,8.043 0,0.915 0.1729,0.916 4.0902,0.023 9.3746,-2.139 16.9867,-5.899 21.2679,-10.508 2.6496,-2.853 3.2717,-4.428 3.2918,-8.337 0.0133,-2.557 -0.0758,-3.092 -0.76,-4.563 -1.1139,-2.395 -3.1417,-4.385 -7.611,-7.471 -5.8561,-4.044 -8.3573,-7.299 -9.0482,-11.776 -0.5667,-3.673 0.0908,-6.265 3.3304,-13.123 3.3531,-7.099 4.1841,-10.124 4.7462,-17.28 0.363,-4.623 0.8658,-6.446 2.1808,-7.909 1.3715,-1.526 2.6061,-2.043 6.0001,-2.512 5.5334,-0.763 9.0568,-2.2091 11.953,-4.9048 2.5124,-2.3385 3.5638,-4.5919 3.7251,-7.984 l 0.1225,-2.5711 -1.404,-1.6534 C 71.0136,78.3916 0.353897,0 0.0409978,0 -0.0258464,0 1.64729,2.11837 3.75893,4.70717 Z M 37.0675,160.465 c 1.1496,-2.057 0.5388,-4.7 -1.3842,-5.992 -1.8169,-1.22 -4.6393,-0.645 -4.6393,0.945 0,0.485 0.2656,0.838 0.8644,1.15 1.0081,0.524 1.0813,1.113 0.2881,2.317 -0.8033,1.22 -0.7385,2.292 0.1829,3.02 1.485,1.175 3.5871,0.529 4.6881,-1.44 z M 71.6691,48.3245 c -2.2684,-0.3554 -2.364,-0.3971 -1.2966,-0.5628 2.0457,-0.3178 6.876,0.1153 10.2047,0.9148 7.7709,1.8657 14.842,6.6453 22.3898,15.1339 l 2.005,2.2551 2.869,-0.4658 c 12.085,-1.9617 24.379,-0.4027 34.662,4.3954 2.829,1.3201 7.289,3.9477 7.846,4.6229 0.177,0.2152 0.504,1.6005 0.724,3.0786 0.764,5.1139 0.382,9.0338 -1.167,11.9615 -0.842,1.5932 -0.889,2.0981 -0.323,3.4616 0.452,1.088 1.713,1.8932 2.962,1.8915 2.555,-0.0035 5.305,-4.1759 6.58,-9.9815 l 0.506,-2.3061 1.003,1.1474 c 5.5,6.2949 9.821,14.8796 10.563,20.99 l 0.193,1.593 -0.924,-1.448 c -1.592,-2.492 -3.19,-4.189 -5.238,-5.5573 -3.69,-2.4666 -7.593,-3.306 -17.927,-3.8561 -9.334,-0.4968 -14.616,-1.3021 -19.854,-3.0274 C 118.534,89.6303 114.042,85.7214 103.455,71.692 98.7531,65.4606 95.8468,62.0129 92.9558,59.2364 86.3866,52.9277 79.9318,49.6191 71.6691,48.3245 Z m 80.7849,13.9132 c 0.235,-4.1756 0.796,-6.9298 1.923,-9.445 0.446,-0.9956 0.864,-1.8105 0.928,-1.8105 0.065,0 -0.129,0.7349 -0.431,1.6329 -0.819,2.4411 -0.954,5.7798 -0.389,9.6643 0.716,4.9288 1.124,5.64 6.281,10.9641 2.419,2.4973 5.233,5.6469 6.253,6.9991 l 1.855,2.4587 -1.855,-1.7571 c -2.268,-2.1488 -7.484,-6.3395 -8.636,-6.9386 -0.773,-0.4017 -0.888,-0.3948 -1.364,0.0843 -0.439,0.4415 -0.532,1.1048 -0.593,4.2408 -0.095,4.8877 -0.754,8.0248 -2.346,11.1617 -0.861,1.6966 -0.997,1.3345 -0.218,-0.5805 0.582,-1.4298 0.641,-2.0584 0.637,-6.7899 -0.009,-9.5068 -1.127,-11.7923 -7.68,-15.7075 -1.659,-0.9918 -4.395,-2.4222 -6.078,-3.1789 -1.682,-0.7566 -3.019,-1.4156 -2.971,-1.4648 0.186,-0.1866 6.577,1.6975 9.149,2.6968 3.826,1.4866 4.457,1.6793 4.922,1.4999 0.311,-0.1202 0.462,-1.0364 0.613,-3.7298 z M 69.2379,54.9392 c -0.6168,7.3397 2.2324,17.1581 6.8374,23.5619 3.5698,4.9641 9.1035,8.8216 13.1888,9.1942 2.6749,0.2439 3.4788,-0.602 2.2686,-2.3869 -1.68,-2.4785 -3.7464,-6.2946 -4.2933,-7.9284 -0.3396,-1.015 -1.0778,-4.0131 -1.6405,-6.6624 -1.9209,-9.045 -3.809,-12.5674 -8.1703,-15.2428 -1.5893,-0.9751 -4.9833,-2.2511 -6.9517,-2.6137 l -1.0482,-0.1933 z m 77.6311,71.2218 c -21.521,-8.752 -29.101,-16.349 -29.101,-29.1673 0,-1.8863 0.065,-3.4297 0.143,-3.4297 0.079,0 0.911,0.6225 1.85,1.3835 4.364,3.5354 9.251,5.0455 22.78,7.0385 7.96,1.174 12.44,2.121 16.573,3.506 13.135,4.4 21.262,13.329 23.2,25.492 0.563,3.534 0.233,10.161 -0.68,13.654 -0.721,2.759 -2.921,7.731 -3.504,7.922 -0.162,0.053 -0.321,-0.573 -0.362,-1.425 -0.221,-4.567 -2.506,-9.013 -6.343,-12.344 -4.363,-3.787 -10.225,-6.801 -24.556,-12.63 z m -16.148,-0.963 c 0.302,0.909 0.77,2.978 1.039,4.599 1.724,10.362 -3.661,18.734 -14.136,21.978 -1.109,0.343 -5.477,1.207 -9.707,1.918 -8.5626,1.44 -12.3843,2.46 -16.2235,4.328 -2.7227,1.325 -6.0191,3.309 -5.8232,3.506 0.0631,0.064 0.6846,-0.086 1.3807,-0.333 4.8416,-1.717 10.2297,-2.606 18.416,-3.036 3.249,-0.17 6.944,-0.442 8.212,-0.603 7.293,-0.928 12.348,-3.166 16.279,-7.207 2.187,-2.249 3.491,-4.344 4.542,-7.298 0.666,-1.874 0.756,-2.57 0.761,-5.89 0.006,-3.383 -0.075,-4.002 -0.797,-6.083 -0.945,-2.728 -2.06,-4.775 -3.472,-6.376 l -1.02,-1.156 z m 10.905,22.296 c -2.86,-6.209 -3.516,-12.203 -1.95,-17.793 0.168,-0.598 0.437,-1.087 0.6,-1.087 0.162,0 0.836,0.369 1.499,0.819 1.317,0.896 3.96,2.405 11,6.282 8.786,4.838 13.795,8.584 17.201,12.865 2.983,3.748 4.829,8.017 5.717,13.223 0.504,2.949 0.209,10.045 -0.54,13.014 -2.362,9.363 -7.852,16.717 -15.682,21.009 -1.147,0.628 -2.177,1.144 -2.289,1.147 -0.111,0.002 0.307,-1.071 0.929,-2.386 2.634,-5.562 2.934,-10.972 0.943,-16.993 -1.22,-3.687 -3.706,-8.186 -8.726,-15.79 -5.836,-8.84 -7.267,-11.193 -8.702,-14.31 z m -53.8596,20.364 c -9.0513,1.485 -18.988,6.323 -26.9742,13.134 l -2.3776,2.028 2.0895,0.33 c 10.904,1.719 13.8402,3.244 21.4037,11.114 4.3526,4.528 5.8226,5.536 9.4328,6.467 5.3026,1.367 10.5294,-1.145 12.3224,-5.923 0.801,-2.135 0.694,-5.67 -0.225,-7.445 -2.186,-4.227 -8.5547,-5.593 -11.6344,-2.497 -2.5652,2.579 -1.8178,6.464 1.3726,7.132 0.7304,0.154 0.7096,0.121 -0.1861,-0.288 -1.3963,-0.638 -2.0028,-1.522 -2.0106,-2.929 -0.0178,-3.299 3.7197,-5.151 7.1967,-3.567 2.5458,1.161 3.5568,2.677 3.5568,5.335 0,4.093 -3.4487,7.177 -7.4623,6.673 -2.1453,-0.27 -4.7689,-1.656 -6.1758,-3.262 -3.5399,-4.043 -2.1609,-10.423 2.7815,-12.871 3.7626,-1.863 8.7641,-1.404 12.6426,1.161 4.456,2.948 6.351,5.642 10.189,14.484 1.25,2.879 2.858,6.12 3.573,7.202 3.636,5.497 7.992,8.193 13.239,8.193 2.894,0 5.071,-0.534 7.81,-1.915 2.035,-1.027 4.92,-2.978 4.712,-3.187 -0.059,-0.059 -0.903,0.206 -1.876,0.589 -5.729,2.257 -11.553,2.102 -14.935,-0.399 -2.13,-1.574 -3.848,-4.71 -4.731,-8.632 -0.153,-0.679 -0.657,-3.677 -1.121,-6.663 -1.176,-7.568 -2.305,-10.97 -4.938,-14.874 -2.694,-3.994 -7.873,-7.346 -13.663,-8.843 -3.6124,-0.934 -10.1107,-1.188 -14.0116,-0.547 z M 75.0896,109.345 c 0.7817,-2.916 3.3068,-5.697 5.9045,-6.503 1.6518,-0.512 5.0661,-0.185 6.6715,0.639 3.1111,1.598 5.3697,5.237 4.8796,7.864 -0.5978,3.203 -5.7405,5.766 -11.6562,5.808 -3.0216,0.021 -4.1375,-0.389 -5.2914,-1.945 -0.7142,-0.964 -0.9848,-4.084 -0.508,-5.863 z m 11.7816,-4.722 c 1.5515,0.957 1.9506,2.372 1.0384,3.681 -0.6284,0.902 -2.5738,1.759 -3.9954,1.759 -2.1358,0 -4.4658,-1.532 -4.4658,-2.935 0,-2.819 4.4681,-4.328 7.4228,-2.505 z m 463.6998,8.072 c -4.826,-16.0525 3.133,-29.3676 20.115,-33.6463 4.87,-1.2278 26.923,-0.6738 30.701,0.7717 1.388,0.5296 1.992,2.5627 2.005,6.7408 0.009,3.2905 0.368,7.2869 0.796,8.8806 0.65,2.4157 0.27,2.891 -2.279,2.8523 -2.306,-0.036 -3.7,-1.3873 -5.647,-5.4753 -3.109,-6.5294 -6.874,-8.6063 -15.647,-8.6307 -11.2,-0.0322 -19.395,7.5086 -18.061,16.6199 0.869,5.929 6.793,11.763 20.087,19.783 12.649,7.629 20.032,13.903 22.973,19.524 7.866,15.028 1.149,31.11 -16.376,39.213 -8.996,4.159 -24.073,4.589 -34.673,0.989 l -6.788,-2.306 v -10.846 c 0,-9.823 0.234,-10.848 2.473,-10.848 1.873,0 2.682,1.238 3.339,5.116 1.636,9.643 8.964,15.497 19.401,15.497 10.224,0 17.371,-5.586 20.109,-15.715 1.166,-4.315 0.965,-5.906 -1.348,-10.666 -2.772,-5.707 -7.545,-9.494 -23.756,-18.846 -8.995,-5.19 -15.356,-12.129 -17.424,-19.008 z M 232.791,85.457 c -2.212,0 -3.075,-0.7227 -3.075,-2.5767 0,-2.4543 0.863,-2.5767 18.196,-2.5767 16.088,0 18.147,0.2422 17.778,2.0884 -0.231,1.1492 -2.454,2.743 -4.943,3.5431 l -4.526,1.4544 -0.386,32.8535 c -0.259,21.922 0.105,34.568 1.092,38.006 2.935,10.225 11.888,16.105 24.52,16.105 8.794,0 13.931,-2.056 20.385,-8.162 6.942,-6.564 8.049,-12.801 8.027,-45.217 -0.021,-31.9747 -0.578,-34.6136 -7.445,-35.2771 -3.125,-0.3027 -4.172,-1.0307 -4.172,-2.8988 0,-2.3294 1.031,-2.4955 15.515,-2.4955 14.653,0 15.515,0.143 15.515,2.5767 0,1.5873 -0.869,2.5844 -2.263,2.596 -5.988,0.0528 -6.098,0.6225 -6.904,35.6837 -0.836,36.41 -1.617,40.721 -8.996,49.64 -2.128,2.573 -7.203,6.309 -11.277,8.303 -6.639,3.249 -8.751,3.622 -20.338,3.601 -10.681,-0.022 -14.053,-0.538 -19.394,-2.969 -7.796,-3.549 -12.866,-8.142 -16.604,-15.044 -2.609,-4.818 -2.832,-7.425 -3.436,-40.068 -0.692,-37.3647 -1.027,-39.166 -7.269,-39.166 z m 120.986,0 c -2.956,0 -3.818,-0.5823 -3.818,-2.5767 0,-2.4156 0.826,-2.5702 13.252,-2.471 l 13.253,0.1056 6.341,7.3024 c 3.485,4.0158 14.849,16.5787 25.25,27.9157 10.402,11.338 22.344,24.527 26.537,29.31 4.194,4.784 8.141,8.697 8.772,8.697 0.648,0 0.971,-13.512 0.74,-31.034 l -0.408,-31.0339 -3.628,-3.1075 c -1.995,-1.7097 -5.048,-3.1076 -6.787,-3.1076 -2.313,0 -3.16,-0.7009 -3.16,-2.6128 0,-2.5162 0.66,-2.5999 17.777,-2.2546 14.555,0.2937 17.778,0.6996 17.778,2.2379 0,1.0964 -1.8,2.247 -4.322,2.761 -2.376,0.4845 -4.995,1.5512 -5.818,2.3706 -1.062,1.0577 -1.603,14.7339 -1.866,47.1629 l -0.371,45.673 h -3.747 c -3.226,0 -7.066,-3.63 -27.596,-26.089 -13.117,-14.35 -28.428,-31.404 -34.024,-37.898 -5.597,-6.495 -10.612,-11.858 -11.145,-11.917 -1.501,-0.168 -1.138,57.858 0.397,63.366 1.197,4.292 2.02,5.031 7.105,6.387 4.095,1.091 5.751,2.198 5.751,3.842 0,2.111 -1.561,2.309 -18.101,2.309 -16.837,0 -18.101,-0.168 -18.101,-2.415 0,-1.645 1.218,-2.658 3.82,-3.177 7.895,-1.573 8.419,-4.07 8.862,-42.24 0.248,-21.378 -0.116,-36.3358 -0.963,-39.4678 -1.488,-5.5077 -5.196,-8.0382 -11.78,-8.0382 z m 135.572,0 c -2.77,0 -3.632,-0.6119 -3.632,-2.5767 0,-2.462 0.862,-2.5767 19.394,-2.5767 18.531,0 19.394,0.1147 19.394,2.5767 0,1.8901 -0.863,2.5767 -3.233,2.5767 -1.777,0 -4.419,1.1829 -5.87,2.6284 -2.561,2.5522 -2.627,3.8213 -2.262,43.2656 0.355,38.505 0.507,40.733 2.884,42.464 1.381,1.005 3.853,1.827 5.495,1.827 2.123,0 2.986,0.743 2.986,2.577 0,2.462 -0.863,2.576 -19.394,2.576 -18.091,0 -19.394,-0.162 -19.394,-2.411 0,-1.814 1.269,-2.615 5.122,-3.229 7.651,-1.219 8.042,-3.715 7.565,-48.254 -0.381,-35.6681 -0.545,-37.892 -2.914,-39.6171 -1.381,-1.0049 -4.144,-1.8269 -6.141,-1.8269 z m 135.283,0 c -1.769,0 -3.114,-0.9804 -3.533,-2.5767 -0.652,-2.4916 -0.038,-2.5767 18.598,-2.5767 18.41,0 19.272,0.1147 19.272,2.5767 0,1.9802 -0.862,2.5767 -3.721,2.5767 -8.139,0 -7.956,1.4738 4.363,35.167 6.269,17.151 12.358,33.443 13.528,36.204 l 2.127,5.021 9.875,-26.279 c 11.625,-30.933 13.135,-36.6535 11.161,-42.2952 -1.376,-3.9321 -6.726,-7.8178 -10.763,-7.8178 -1.141,0 -2.004,-1.1079 -2.004,-2.5767 0,-2.4659 0.863,-2.5767 20.041,-2.5767 19.178,0 20.04,0.1108 20.04,2.5767 0,1.8334 -0.862,2.5767 -2.985,2.5767 -5.436,0 -7.833,2.8886 -7.052,8.5007 0.804,5.777 23.041,67.8663 23.974,66.9373 1.517,-1.511 26.144,-68.3507 26.144,-70.9558 0,-3.1216 -2.192,-4.4822 -7.217,-4.4822 -2.264,0 -3.127,-0.7098 -3.127,-2.5767 0,-2.4337 0.863,-2.5767 15.516,-2.5767 13.16,0 15.515,0.3042 15.515,1.9996 0,1.1003 -1.612,2.5599 -3.583,3.244 -4.432,1.5396 -5.545,3.2969 -11.105,17.5318 -2.441,6.251 -10.082,25.815 -16.981,43.473 -6.898,17.66 -12.839,32.879 -13.201,33.82 -0.363,0.942 -2.501,1.712 -4.753,1.712 h -4.092 l -9.287,-24.157 c -5.109,-13.285 -11.144,-29.025 -13.41,-34.977 -3.886,-10.199 -4.212,-10.642 -5.674,-7.731 -0.853,1.701 -6.989,17.469 -13.638,35.041 l -12.086,31.95 -4.511,-0.385 -4.511,-0.385 -17.205,-44.992 C 640.735,111.311 631.896,90.1312 630.316,88.4564 628.76,86.806 626.203,85.457 624.632,85.457 Z m 258.524,0.5464 c -0.216,-0.4894 -0.215,-2.2482 -0.215,-2.2482 0,0 -0.049,-0.6344 0.217,-0.9728 0.265,-0.3373 0.359,-0.3463 1.31,-0.4367 l 0.009,-9e-4 c 3.491,-0.332 10.495,-0.8908 16.34,-1.1458 0.535,-0.0234 1.13,-0.0504 1.777,-0.0797 l 0.013,-6e-4 0.008,-4e-4 0.005,-2e-4 c 6.433,-0.2919 17.944,-0.6823 25.856,-0.2869 15.18,0.7585 25.977,8.0962 29.656,20.2218 3.68,12.125 1.734,23.507 -3.281,30.752 -5.016,7.245 -13.449,13.483 -27.467,13.077 -11.572,-0.335 -14.669,-2.502 -17.143,-4.233 -0.523,-0.366 -1.018,-0.713 -1.559,-1.018 v 15.463 c 0.122,10.546 0.21,15.611 1.027,17.486 1.1,2.524 3.587,4.079 8.433,5.271 0,0 2.192,0.514 2.758,1.062 0.565,0.548 0.565,1.765 0.565,1.765 0,0 0.116,1.138 -0.338,1.718 -0.455,0.58 -1.332,0.464 -1.332,0.464 l -21.46,-0.173 -12.939,-0.034 c 0,0 -1.358,0.26 -1.867,-0.286 -0.509,-0.547 -0.462,-1.686 -0.462,-1.686 0,0 0.112,-1.227 0.706,-1.776 0.594,-0.55 2.803,-1.164 2.803,-1.164 4.99,-1.401 7.154,-2.883 8.285,-5.675 0.911,-2.251 0.917,-6.425 0.908,-40.488 -0.009,-32.3031 -0.056,-38.3288 -0.797,-40.0618 -1.096,-2.5653 -3.841,-3.245 -7.749,-4.2127 l -0.002,-4e-4 c -0.774,-0.1919 -1.595,-0.3951 -2.457,-0.6265 0,0 -1.391,-0.1838 -1.608,-0.6732 z m 62.486,26.3586 c 0,5.297 -0.093,13.59 -5.732,18.891 -5.639,5.301 -16.742,6.752 -24.279,5.276 -2.376,-0.465 -3.734,-1.182 -4.781,-1.735 l -0.105,-0.055 -1.929,-1.016 -0.112,-18.611 c -0.07,-11.661 0.052,-19.2584 0.327,-20.3445 0.251,-6.1487 9.32,-6.9136 13.752,-6.6859 18.959,0 22.306,15.9744 22.859,24.2804 z M 823.621,81.0252 c 0,0 -0.926,0.3554 -2.33,0.8876 l -5.062,2.6147 -3.646,9.1008 c -2.004,5.0053 -5.672,14.1937 -8.149,20.4187 -4.512,11.338 -7.492,18.787 -10.628,26.562 -0.922,2.287 -3.707,9.251 -6.189,15.476 -2.481,6.224 -4.961,12.148 -5.511,13.164 -0.092,0.169 -0.189,0.351 -0.291,0.543 -1.387,2.608 -3.798,7.138 -8.055,7.823 0,0 -2.34,0.23 -3.207,1.086 -0.867,0.857 -0.783,1.557 -0.783,1.557 v 1.079 c 0,0 0.079,0.523 0.57,0.783 0.491,0.261 1.156,0.276 1.156,0.276 l 15.571,-0.177 h 16.094 c 0,0 1.138,0.133 1.577,-0.231 0.439,-0.364 0.56,-0.904 0.56,-0.904 v -1.136 c 0,0 -0.224,-1.232 -0.861,-1.713 -0.637,-0.48 -3.026,-0.809 -3.026,-0.809 -6.443,-0.847 -7.552,-5.72 -6.757,-10.102 0.391,-2.153 2.98,-10.117 5.896,-18.135 l 1.009,-2.771 16.863,-0.129 c 9.275,-0.071 17.283,-0.023 17.795,0.107 0.732,0.185 1.757,2.266 4.766,9.678 4.559,11.23 4.923,12.598 3.914,14.699 -0.062,0.128 -0.127,0.269 -0.198,0.421 -0.947,2.032 -2.786,5.98 -7.42,6.382 0,0 -2.458,0.085 -3.07,0.82 -0.611,0.736 -0.479,1.582 -0.479,1.582 v 1.124 c 0,0 0.164,0.659 0.479,0.92 0.316,0.261 0.85,0.195 0.85,0.195 l 15.307,-0.11 21.517,-0.001 c 0,0 0.844,0.09 1.074,-0.234 0.229,-0.325 0.277,-0.707 0.277,-0.707 v -1.493 c 0,0 -0.094,-0.794 -0.508,-1.232 -0.413,-0.437 -3.204,-0.899 -3.204,-0.899 -3.564,-0.575 -5.339,-3.517 -6.661,-5.708 -0.337,-0.559 -0.645,-1.069 -0.945,-1.478 -0.613,-0.835 -2.801,-5.411 -4.515,-9.812 -1.713,-4.401 -5.579,-14.343 -8.59,-22.092 -3.012,-7.749 -7.215,-18.559 -9.34,-24.021 -2.125,-5.463 -6.163,-15.857 -8.974,-23.0981 -0.461,-1.1885 -0.875,-2.256 -1.245,-3.2116 l -10e-4,-0.0043 c -1.885,-4.8629 -2.645,-6.8252 -2.854,-7.0908 -0.677,-0.8624 -2.776,0 -2.776,0 z m -1.002,29.5908 c -0.679,-1.651 -1.875,-4.613 -2.656,-6.582 -1.42,-3.579 -1.959,-4.4034 -2.399,-3.664 -0.128,0.216 -1.022,2.662 -1.986,5.436 -6.24,17.96 -9.066,26.047 -9.633,27.571 -0.356,0.958 -0.647,1.945 -0.647,2.194 0,0.286 5.076,0.453 13.772,0.453 7.574,0 13.771,-0.094 13.771,-0.209 0,-0.115 -0.675,-1.829 -1.501,-3.811 -0.826,-1.982 -2.848,-6.929 -4.493,-10.994 -1.645,-4.065 -3.548,-8.742 -4.228,-10.394 z"
     fill="#ff007a"
     id="path2904"
     style="fill:#ff91c6;fill-opacity:1" />
</svg>
