<svg xmlns="http://www.w3.org/2000/svg" xmlns:xlink="http://www.w3.org/1999/xlink" width="1081.376" height="291.992" viewBox="0 0 1081.376 291.992"><defs><clipPath id="a"><path d="M141.2,118c8.7-12.1,25.5-17.4,47.3-15.7,29.9,2.4,69.6,18.5,107.8,45.7,38,27.4,66,59.9,77.8,87.4,8.7,19.8,9,37.5.3,49.7l-59.6,83.4c-8.7,12.1-25.6,17.5-47.2,15.8-29.9-2.6-69.7-18.5-107.8-45.9-38.2-27.2-66-59.7-78-87.2-8.7-19.9-9-37.7-.3-49.7ZM366,279.1c7-9.6,5.6-23.8-1.3-39.7-11.4-26.1-38.1-57-74.6-83s-74.2-41.5-102.6-43.8c-17.3-1.5-31.1,1.7-38,11.4l-.3.5c-6.6,9.8-5.1,23.4,1.8,39.1,11.4,26.3,38.1,57.2,74.4,83.2s74.1,41.5,102.6,43.9c17,1.3,30.5-1.8,37.5-10.9ZM273.2,180c18.2,13,31.6,28.4,37.3,41.7,3.3,7.4,4.3,13.9.9,18.4-3.3,4.5-9.7,5.8-17.6,5.1-14.4-1.2-33.1-9-51.3-22s-31.8-28.4-37.3-41.5c-3.3-7.4-4.1-14-.9-18.4,3.2-4.5,9.7-5.8,17.8-5.2C236.2,159.3,255.1,167,273.2,180Z"/></clipPath><linearGradient id="b" x1="0.5" y1="1" x2="0.5" gradientUnits="objectBoundingBox"><stop offset="0" stop-color="#fa52a0"/><stop offset="0.507" stop-color="#c26bb3"/><stop offset="1" stop-color="#27b0e6"/></linearGradient></defs><g transform="translate(-70.524 -97.268)"><path d="M420.7,318.8l25.9-38.6c17.1,15,41.2,25.3,61.8,25.3,16.2,0,30-6.5,30-16.8,0-10.9-15.9-15-37.7-20.3-42.4-10.3-71.8-30.3-71.8-66.2,0-37.4,32.1-61.8,80.1-61.8,31.5,0,57.7,10.9,73,25L558.7,204c-12.1-10.9-31.8-18.6-50.3-18.6-16.2,0-27.4,6.2-27.4,15,0,10.3,15.9,15.9,33.8,20,17.7,3.8,75.4,18,75.4,66.2,0,38.3-35.6,63.9-81.5,63.9C476.9,350.6,442.5,337.9,420.7,318.8Z" fill="#fff"/><path d="M608,287V196.9h47.7v83.3c0,14.7,9.7,24.1,24.1,24.1s24.1-9.4,24.1-24.1V196.9h47.7V287c0,38.3-28.5,63.6-71.8,63.6S608,325.2,608,287Z" fill="#fff"/><path d="M769.1,328.2l21.2-30c12.1,9.1,25.6,15.6,42.7,15.6,12.4,0,20.9-3.5,20.9-10,0-7.1-10.3-9.7-24.4-12.7-23.3-5-55.6-12.4-55.6-48.3,0-33.3,28.8-49.5,63.9-49.5,27.1,0,46.5,9.4,60.9,19.4l-21.2,30c-11.8-7.4-23.6-12.7-38-12.7-10,0-18.2,2.6-18.2,8.8,0,7.1,10.3,9.4,24.1,12.4,23.3,4.4,55.9,12.1,55.9,48,0,33.6-29.1,51.2-66.8,51.2C805.3,350.6,784.1,339.7,769.1,328.2Z" fill="#fff"/><path d="M1069.8,249.6V347h-47.7V265.5c0-15.6-9.7-25.9-24.7-25.9-16.5,0-27.4,10.6-27.4,26.5v81H922.3v-212H970V211c11.5-11.8,26.2-17.7,43.3-17.7C1047.1,193.3,1069.8,215.7,1069.8,249.6Z" fill="#fff"/><path d="M1093.7,151.8c0-16.8,12.7-29.1,29.1-29.1,16.8,0,29.1,12.4,29.1,29.1,0,16.5-12.4,28.8-29.1,28.8C1106.4,180.7,1093.7,168.3,1093.7,151.8Zm5.3,45.1h47.7V347H1099Z" fill="#fff"/><path d="M378.3,287.9l-59.7,83.4c-9.5,13.2-27.7,19.6-51.5,17.6-30.6-2.5-71.2-18.7-110.1-46.6-38.7-27.8-67.1-61.1-79.5-89.3-9.4-21.8-9.3-41.1.3-54.3l59.7-83.4c9.6-13.3,27.8-19.6,51.4-17.7,30.5,2.5,71.2,18.8,110.1,46.6,39,27.9,67.3,61.2,79.5,89.3,9.6,21.9,9.3,41.2-.2,54.4Zm-224.9-161c6.2-8.5,18.6-10.8,33.9-9.5,28,2.3,64.8,17.5,100.2,43s61.8,55.4,73,81.1c6,14.1,8,26.5,1.8,35.1l8,5.7-8-5.7-59.7,83.3c-6.1,8.6-18.5,10.8-33.7,9.6-28-2.3-64.8-17.5-100.4-43S106.7,271,95.7,245.3c-6.2-14.2-8-26.5-1.9-35.1Z" fill="#fff" fill-rule="evenodd"/><path d="M145.6,123.1c19.6-27.3,85.5-13.3,147.7,31.2s96.5,102.6,77.1,129.9l-59.7,83.4c-19.5,27.2-85.8,13.3-147.8-31.2s-96.7-102.7-77.1-130Z" fill="#fff" fill-rule="evenodd"/><path d="M142.2,121.7c8.7-12,27.1-17.9,48.8-16.2,29.9,2.4,68.1,20.1,106.3,47.3,38,27.4,64.8,54.9,76.6,82.6,8.7,19.8,9,37.5.3,49.7l-59.6,83.4c-8.7,12.1-25.6,17.5-47.2,15.8-29.9-2.6-69.7-18.5-107.8-45.9a302.521,302.521,0,0,1-35.4-29.5c-18.8-17.9-29.1-43.4-37.3-62.2-8.7-20-8.7-24.2,0-36.4ZM366,279.1c7-9.6,5.6-23.8-1.3-39.7-11.4-26.1-37.6-60.6-74-86.6s-71.3-42.1-99.8-44.4c-17.4-1.4-34.3-.1-41.2,9.6l-4.1,6c-6.5,9.7-12.5,13.3-5.6,28.9,11.4,26.3,45.3,72.2,81.7,98.3,28.2,20.3,60.8,29.7,88.9,36.8a123.336,123.336,0,0,0,17.2,2.8c17,1.3,30.5-1.8,37.5-10.9Zm-94.8-91.2c18.2,13,27.8,23.9,33.5,37.1,3.3,7.4,1.1,4.3-2.2,8.9-3.3,4.5-3.8,2.3-11.7,1.6-14.4-1.2-26.7-7.7-44.9-20.7-18.2-12.9-25.3-21.6-30.9-34.7-3.3-7.4-8.3-10-5.2-14.5s4.1-2.9,12.2-2.3C236.2,164.5,253.1,174.9,271.2,187.9Z" fill="#0e0f23" fill-rule="evenodd"/><g clip-path="url(#a)"><path d="M62.4,282.3c1.6,0,4.2,3.7,5.7,4.7a175.494,175.494,0,0,0,15.4,10.6c15.2,9.3,30.8,14.5,46.5,11,24.6-5.5,46.9-48.4,71.7-42.5,13.9,3,23.7,22.7,35.9,36,11.5,13.4,24.3,19.2,37.2,16.6,38.3-7.7,52.8-83,91.7-79.1,32.2,3.6,19.6,42.2,50.7,55.9.3.3-39.8-87.1-39.3-98.6C380.1,153.6,175,91,176.9,91L78,117Z" fill="url(#b)"/></g><path d="M313.6,302.1c11.2,1.9,21.7,2.3,30.3.8a2.154,2.154,0,0,0,1.9-2.4,2.274,2.274,0,0,0-2.4-1.9c-8.4,1.4-18.2,1-29.1-.9a2.31,2.31,0,0,0-2.5,2A2.281,2.281,0,0,0,313.6,302.1Zm-17.1-3.8c2.9.7,5.7,1.6,8.5,2.1a1.9,1.9,0,0,0,2.4-1.4c0-.1.1-.2.1-.3a2.263,2.263,0,0,0-1.6-2.6c-2.8-.5-5.5-1.3-8.3-2a2.069,2.069,0,0,0-2.7,1.2c0,.1-.1.1-.1.2a2.752,2.752,0,0,0,1.7,2.8ZM135,161.3c8.1,33.2,39.9,64.1,65.5,86.1a2.3,2.3,0,0,0,3.1-.1c.7-1.1.7-2.3-.3-3-24.9-21.5-56.1-51.6-63.9-83.9a2.2,2.2,0,0,0-2.7-1.6h-.1a2,2,0,0,0-1.6,2.4h0C134.9,161.1,134.9,161.2,135,161.3ZM133.1,148a34.013,34.013,0,0,0,.3,4.5,2.311,2.311,0,0,0,2.5,1.9,2.026,2.026,0,0,0,1.9-2.2h0v-.1c-.1-1.6-.3-2.9-.3-4.2a2.03,2.03,0,0,0-2-2.1h-.3A2.019,2.019,0,0,0,133.1,148Z" fill="#fff" fill-rule="evenodd"/></g></svg>