<?xml version="1.0" encoding="UTF-8" standalone="no"?>
<!-- Generator: Adobe Illustrator 19.2.1, SVG Export Plug-In . SVG Version: 6.00 Build 0)  -->

<svg
   version="1.1"
   id="layer"
   x="0px"
   y="0px"
   viewBox="0 0 652 652"
   style="enable-background:new 0 0 652 652;"
   xml:space="preserve"
   sodipodi:docname="logo-1inch.svg"
   inkscape:version="1.2 (dc2aedaf03, 2022-05-15)"
   xmlns:inkscape="http://www.inkscape.org/namespaces/inkscape"
   xmlns:sodipodi="http://sodipodi.sourceforge.net/DTD/sodipodi-0.dtd"
   xmlns="http://www.w3.org/2000/svg"
   xmlns:svg="http://www.w3.org/2000/svg"><defs
   id="defs23" /><sodipodi:namedview
   id="namedview21"
   pagecolor="#ffffff"
   bordercolor="#000000"
   borderopacity="0.25"
   inkscape:showpageshadow="2"
   inkscape:pageopacity="0.0"
   inkscape:pagecheckerboard="0"
   inkscape:deskcolor="#d1d1d1"
   showgrid="false"
   inkscape:zoom="1.2745399"
   inkscape:cx="287.55475"
   inkscape:cy="325.6077"
   inkscape:window-width="1920"
   inkscape:window-height="1011"
   inkscape:window-x="1920"
   inkscape:window-y="0"
   inkscape:window-maximized="1"
   inkscape:current-layer="layer" />
<style
   type="text/css"
   id="style2">
	.st0{fill:#2F7AEA;}
	.st1{fill:#FFFFFF;}
	.st2{fill:#94A6C3;}
	.st3{fill:#1B314F;}
	.st4{fill:#FFD923;}
	.st5{fill:#D82122;}
</style>
<path
   d="M258.5,260.4h24.2v96.8h24.2V236.2h-24.2C269.4,236.2,258.5,247.1,258.5,260.4z M331.1,357.3h24.2v-48.4  c0-13.3-10.9-24.2-24.2-24.2V357.3z M379.5,284.7v72.6h24.2v-48.4H428v24.2c0,13.3,10.9,24.2,24.2,24.2v-48.4  c0-13.3-10.9-24.2-24.2-24.2H379.5z M597.4,284.7h-24.2v-24.2c0-13.3-10.9-24.2-24.2-24.2v96.8h-48.4v-24.2h24.2v-24.2h-24.2  c-13.3,0-24.2,10.9-24.2,24.2v24.2c0,13.3,10.9,24.2,24.2,24.2h72.6v-48.4h24.2v24.2c0,13.3,10.9,24.2,24.2,24.2v-48.4  C621.7,295.6,610.8,284.7,597.4,284.7z M331.1,260.4h24.2c0-13.3-10.9-24.2-24.2-24.2V260.4z"
   id="path4"
   style="fill:#ffffff;fill-opacity:1" />
<path
   class="st0"
   d="M296.2,381.5v15.6H294l-8.7-10.8v10.8h-2.6v-15.6h2.2l8.7,10.9v-10.9H296.2z M345.5,397.2h-9.4v-15.6h9.2v2.6  h-6.4v3.9h5.7v2.6h-5.7v4h6.6V397.2z M385.3,384.1h5.1v13.1h2.8v-13.1h5.1v-2.6h-13.1V384.1z M457.6,381.5h2.7l-4.5,15.6h-2.6  l-3.8-11.3l-3.8,11.3H443l-4.7-15.6h3.1l3.2,11.2l3.5-11.2h2.8l3.6,11.2L457.6,381.5z M502.5,383.8c-1.5,1.5-2.3,3.5-2.3,5.7  c0,2.4,0.8,4.3,2.3,5.8c1.6,1.5,3.5,2.2,5.9,2.2c2.4,0,4.3-0.8,5.9-2.3c1.6-1.5,2.4-3.5,2.4-5.8c0-2.4-0.8-4.3-2.4-5.8  c-1.6-1.5-3.5-2.2-5.9-2.2C506,381.5,504.1,382.3,502.5,383.8z M504.6,393.5c-1-1-1.5-2.4-1.5-3.9c0-1.6,0.5-2.9,1.5-4  c1-1,2.3-1.5,3.8-1.5c1.5,0,2.8,0.5,3.8,1.5c1,1,1.5,2.4,1.5,4c0,1.6-0.5,2.9-1.4,3.9c-1,1-2.2,1.6-3.9,1.6  C506.9,395.1,505.6,394.6,504.6,393.5z M559.3,391.3v5.9h-2.8v-15.6c0.8,0,1.6,0,2.6,0c0.9,0,1.7,0,2.3,0c3.8,0,5.7,1.6,5.7,4.8  c0,1.2-0.3,2.2-0.9,3c-0.6,0.7-1.3,1.3-2.1,1.5l5,6.4h-3.4l-4.4-5.9H559.3z M561.2,384.1c-0.1,0-0.2,0-0.4,0c-0.2,0-0.4,0-0.7,0  h-0.8v4.7h1.8c0.9,0,1.6-0.2,2.2-0.6c0.6-0.4,0.9-1,0.9-1.8C564.2,384.8,563.2,384.1,561.2,384.1z M608.9,397.2h2.8v-8.1l6.5,8.1  h3.5l-6.9-8.4l6.5-7.3h-3.3l-6.2,7.4v-7.4h-2.8V397.2z"
   id="path6"
   style="fill:#76a7f2;fill-opacity:1" />
<path
   class="st1"
   d="M72.6,331.3l5.6-42.5l-49.1-34.1L74,269.8l10.6-16.2l38.7-24l85.3,47l4.4,71.7L175,401l-30,4.6l15.5-28.4v-27.4  l-11.3-21.4l-11.5-7.6L120,339v19.2l-13.8,12.9l-17.5,2.1l-7.8,4.4l-12.7-4.1L63,354.6l9.5-13.4V331.3z"
   id="path8" />
<path
   class="st2"
   d="M150.9,254.3c-9.4-1.9-19.6-1.4-19.6-1.4s-3.4,15.5-24.2,19.6C107.3,272.5,134.7,281.8,150.9,254.3z   M159.4,395.2c11.3-8.8,19.8-21,23.7-34.8c0.2-0.5,1.8-1.4,2.8-2.1c1.8-1.1,3.5-1.9,3.9-3.4c0.7-4.1,1.1-8.3,1.1-12.5  c0-1.6-1.6-3.2-3.2-4.8c-1.2-1.1-2.5-2.3-2.5-3.2c-1.8-16.1-9.2-31.1-21-42l-1.2,1.2c11.5,10.8,18.9,25.4,20.5,41  c0.2,1.4,1.6,2.8,3,4.2c1.2,1.1,2.6,2.6,2.6,3.4c0,4.1-0.4,8.1-1.1,12.2c-0.2,0.7-1.8,1.4-3,2.1c-1.8,0.9-3.4,1.8-3.7,3.2  c-4.2,15-13.9,28.1-26.8,36.5c2.3-4.9,9.5-21,13.4-29.1l-0.7-26.1l-22.4-21.7l-12.7,1.8l-13.9,22.6c0,0,6.5,8.3-2.6,18  c-9,9.5-16.1,11.7-16.1,11.7l-6.5-3.5c1.9-2.5,5.8-6.2,8.8-8.7c5.1-4.2,10.2-4.6,10.2-9.2c0.2-9.5-10.1-6.9-10.1-6.9l-3.7,3.5  l-1.6,13.1l-7.8,9.7l-0.9-0.2l-12.7-2.8c0,0,7.8-4.1,9-8.7c1.2-4.4-2.5-19.1-2.6-19.9c0.2,0.2,3.7,3.2,5.3,8.1  c2.8-7.8,6.5-15.2,7.6-15.9c1.1-0.7,15.4-8.3,15.4-8.3l-4.8,12.5l3.5-1.9l8.5-20.8c0,0,8.3-4.1,14.5-4.1  c11.1-0.2,27.5-13.8,20.1-38.1c2.1,0.9,38.8,19.2,45.2,55.3C201.6,354.2,185.9,380.2,159.4,395.2z"
   id="path10" />
<path
   class="st3"
   d="M117.4,258.2c4.1-4.8,2.5-11.8,2.5-11.8L108,263.8C107.9,263.8,112.3,264,117.4,258.2z M77.7,353.7l1.4-7.1  c0,0-5.8,10.2-6.4,11.7c-0.5,1.6,0.4,4.4,2.6,4.2c2.3-0.2,5.1-3.5,5.1-6C80.5,353.3,77.7,353.7,77.7,353.7z M182.5,241.4  c0,0,8.8,0.4,18,1.4c-20.7-16.2-40.3-21-56.1-21c-21.9,0-36.7,9-37.6,9.5l6.9-10.9c0,0-27.5-2.6-37.3,26.5  c-2.5-6.2-4.8-15.2-4.8-15.2s-14.3,12.5-7.6,33.4c-16.4-6-39.9-14.3-40.8-14.5c-1.2-0.2-1.6,0.4-1.6,0.4s-0.4,0.5,0.7,1.4  c1.9,1.6,39,29,47.1,34.2c-1.8,6.4-1.8,9.4,0,12.4c2.5,4.1,2.6,6.2,2.3,9.2c-0.4,3-3.5,29-4.2,32.1c-0.7,3.2-8.1,14.5-7.8,17.8  c0.4,3.4,4.9,17.7,9,19.2c3,1.1,10.4,3.4,15.4,3.4c1.8,0,3.4-0.4,4.1-1.1c3-2.6,3.9-3.2,6-3.2c0.2,0,0.4,0,0.5,0  c0.9,0,1.9,0.2,3.2,0.2c2.8,0,6.5-0.5,9.2-3c3.9-3.9,10.6-9.2,12.7-11.7c2.6-3.4,4.1-7.9,3.4-12.5c-0.5-4.2,1.8-7.9,4.4-11.7  c3.4-4.4,9.5-12.4,9.5-12.4c12.2,9.2,19.8,23.1,19.8,38.7c0,27.5-24,49.8-53.7,49.8c-4.6,0-9-0.5-13.4-1.6  c13.6,4.8,25.1,6.4,34.4,6.4c19.9,0,30.5-7.2,30.5-7.2s-3.7,4.8-9.7,10.2c0.2,0,0.2,0,0.2,0c33-4.6,49.1-31.8,49.1-31.8  s-1.2,8.8-2.8,14.8c44-33,36.5-74.3,36.4-75.7c0.4,0.5,4.8,5.8,7.1,8.7C242,264.9,182.5,241.4,182.5,241.4z M114.9,357.6  c-0.7,0.9-3.7,3.5-5.8,5.5c-2.1,1.9-4.4,3.9-6.2,5.6c-0.7,0.7-2.1,1.1-4.2,1.1c-0.7,0-1.4,0-1.9,0c-0.4,0-0.7,0-1.1,0  c-0.4,0-0.5,0-0.7,0c-0.5,0-1.1,0-1.6,0c2.6-3.5,10.4-11.7,13.1-13.4c3.2-2.1,4.8-4.2,2.8-7.9c-1.9-3.7-7.1-2.8-7.1-2.8  s3-1.2,5.6-1.2c-3.4-0.9-7.6,0-9.5,1.9c-2.1,1.9-1.8,8.8-2.6,13.2c-0.9,4.6-3.9,6.9-8.5,11.1c-2.5,2.3-4.2,3-5.6,3  c-3-0.5-6.5-1.4-9-2.3c-1.8-2.3-4.4-9.9-5.1-13.1c0.5-1.8,2.6-5.5,3.7-7.6c2.1-4.1,3.4-6.4,3.7-8.5c0.7-3,3-21.5,3.9-29.3  c2.3,3,5.5,7.9,4.8,11.1c5.1-7.2,1.4-14.3-0.4-17.1c-1.6-2.8-3.7-8.5-1.9-14.5c1.8-6,8.1-22.6,8.1-22.6s2.1,3.7,5.1,3  c3-0.7,27.2-37.1,27.2-37.1s6.5,14.3-0.4,24.7c-7.1,10.4-13.9,12.4-13.9,12.4s9.7,1.8,18.7-4.8c3.7,8.7,7.2,17.7,7.4,18.9  c-0.5,1.2-7.6,18.2-8.3,19.2c-0.4,0.4-2.8,1.1-4.6,1.4c-3,0.9-4.8,1.4-5.5,1.9c-1.2,1.1-6.9,16.6-9.5,24.2c-3.2,0.9-6.4,2.6-8.7,6.2  c1.2-0.9,5.1-1.4,7.9-1.8c2.5-0.2,10.1,3.9,12,11.5c0,0.2,0,0.2,0,0.4C117.2,352.8,116.3,355.5,114.9,357.6z M98.3,359.7  c1.6-2.3,1.4-6.2,1.6-7.4c0.2-1.2,0.5-3.5,1.9-3.9c1.4-0.4,4.8,0.2,4.8,2.6c0,2.3-2.5,2.8-4.2,4.4  C101.2,356.7,98.7,359.3,98.3,359.7z M168.8,326c1.8-9,1.9-16.8,1.4-23.1c6.9,9.2,11.1,20.3,12.4,31.8c0.2,1.4,1.6,2.8,3,4.2  c1.2,1.1,2.6,2.5,2.6,3.4c0,4.1-0.4,8.1-1.1,12.2c-0.2,0.5-1.8,1.4-3,2.1c-1.8,0.9-3.4,1.8-3.7,3.2c-3.9,13.6-12.2,25.6-23.3,34.1  C173.5,376.7,181.5,348.4,168.8,326z M157.7,395.4c11.5-8.8,20.3-21.2,24.2-35.1c0.2-0.5,1.8-1.4,2.8-2.1c1.8-0.9,3.5-1.9,3.9-3.4  c0.7-4.1,1.1-8.3,1.1-12.5c0-1.6-1.6-3.2-3.2-4.8c-0.9-1.1-2.3-2.3-2.3-3.2c-1.4-12.9-6.5-25.1-14.5-35.1  c-3.5-21.2-17.7-27.7-18-27.9c0.4,0.5,9.5,13.8,3.2,29.3c-6.5,15.7-23.3,13.2-24.7,13.4c-1.4,0-6.9,7.1-13.8,20.1  c-0.9-0.4-4.6-1.2-8.8-0.5c3.2-8.8,7.9-21.4,8.8-22.4c0.4-0.4,3-1.1,4.8-1.6c3.4-0.9,4.9-1.4,5.5-2.1c0.4-0.5,2.1-4.6,3.9-8.8  c1.6,0,5.6-0.4,6-0.5c0.4-0.4,3.7-9,3.7-10.1c0-0.9-6.9-18-9.5-24.5c1.2-1.4,2.5-3.2,3.7-5.1c36.2,3.9,64.4,34.6,64.4,71.9  C198.8,358.8,182,383.7,157.7,395.4z M110.7,300c3.4-3.9,1.6-11.1-4.6-12.4c1.6-3.7,3.9-11.1,3.9-11.1s-18,28.2-19.6,28.8  c-1.6,0.5-3.2-5.6-3.2-5.6c-3.4,12.9,5.6,14.7,6.7,10.6C98.9,309,107.3,303.7,110.7,300z"
   id="path12" />
<path
   class="st4"
   d="M95.3,306.9l9.2-15.7c0,0,5.3,2.6,2.6,6.9C103.8,303,95.3,306.9,95.3,306.9z"
   id="path14" />
<path
   class="st5"
   d="M208.8,379.7c-2.6,3.5-5.6,7.2-9.2,10.8c22.8-43.8,1.1-83.9,0.2-85.4c1.6,1.6,3.2,3.4,4.6,4.9  C221.9,329.3,224,358.5,208.8,379.7z M230,323.3c-7.9-21.4-19.2-39.5-44.1-56c-24-15.9-49.8-14.7-51.2-14.5c-0.2,0-0.4,0-0.4,0  c0.9-0.4,1.8-0.5,2.6-0.7c5.5-1.8,12.5-3.2,19.6-4.1c18.7-2.6,37.6,3.7,50.5,17.3c0.2,0.2,0.2,0.2,0.4,0.4  C222.1,281.3,229.7,300.7,230,323.3z M180.2,235.9c-26.3-4.9-43.3-2.5-55.4,2.1c-0.4-1.4-1.6-4.2-2.6-6.5  c-3.7,4.4-7.6,9.7-10.1,13.1c-6.7,4.6-9.5,9-9.5,9c3.9-13.2,15.2-23.1,29-25.6c3.9-0.7,8.1-1.1,12.7-1.1  C156.4,227.1,168.6,230.1,180.2,235.9z M83,269.8c-20.7-0.7-13.8-24.7-13.4-26.1C69.6,243.9,71,262.6,83,269.8z M103.3,226.6  c-15.9,9.5-12.7,32.3-12.7,32.3C75.4,235.8,102,227.1,103.3,226.6z"
   id="path16" />
<path
   class="st1"
   d="M77.2,276.2c1.1,0.9,2.1,2.5,0.9,4.8c-0.7,1.2-1.8,1.1-3.4,0.4c-2.1-1.1-14.8-8.5-26.3-16.1  c13.1,4.6,26.3,9.5,28.4,10.6C76.8,275.8,77,276,77.2,276.2z"
   id="path18" />
</svg>
