<svg xmlns="http://www.w3.org/2000/svg" xmlns:xlink="http://www.w3.org/1999/xlink" width="400" viewBox="0 0 300 60" height="80" preserveAspectRatio="xMidYMid meet"><path fill="rgb(0%, 61.959839%, 98.81897%)" d="M 9.425781 47.796875 C 6.519531 47.285156 3.550781 44.964844 2.21875 42.105469 C 1.582031 40.722656 1.554688 40.390625 1.554688 30.308594 C 1.554688 19.921875 1.554688 19.921875 2.371094 18.207031 C 5.246094 12.066406 12.996094 10.621094 17.660156 15.316406 C 19.65625 17.332031 20.382812 19.019531 20.65625 22.117188 C 20.867188 24.585938 20.867188 24.585938 17.933594 24.585938 C 15.027344 24.585938 15.027344 24.585938 15.027344 23.445312 C 15.027344 19.800781 12.664062 17.605469 9.726562 18.566406 C 9.0625 18.777344 8.394531 19.289062 8.03125 19.890625 C 7.488281 20.765625 7.457031 21.488281 7.457031 30.097656 C 7.457031 40.269531 7.515625 40.691406 9.273438 41.59375 C 12.242188 43.128906 15.027344 40.753906 15.027344 36.71875 C 15.027344 35.425781 15.027344 35.425781 17.902344 35.425781 C 20.777344 35.425781 20.777344 35.425781 20.777344 37.050781 C 20.777344 39.636719 20.261719 41.59375 19.113281 43.371094 C 16.964844 46.710938 13.179688 48.429688 9.425781 47.796875 Z M 9.425781 47.796875 " fill-opacity="1" fill-rule="nonzero"></path><path fill="rgb(0%, 61.959839%, 98.81897%)" d="M 140.207031 47.796875 C 137.121094 47.253906 133.941406 44.605469 132.820312 41.625 C 132.183594 39.878906 132.15625 39.519531 132.246094 29.734375 C 132.335938 19.710938 132.335938 19.621094 133.0625 18.207031 C 134 16.371094 136.152344 14.230469 137.90625 13.390625 C 139.785156 12.488281 142.8125 12.304688 144.902344 13 C 147.109375 13.71875 149.773438 16.25 150.683594 18.507812 C 151.410156 20.191406 151.410156 20.375 151.410156 30.457031 C 151.410156 40.691406 151.410156 40.691406 150.5 42.46875 C 148.5625 46.320312 144.355469 48.488281 140.207031 47.796875 Z M 143.449219 41.714844 C 143.839844 41.566406 144.476562 40.964844 144.871094 40.390625 C 145.6875 39.1875 145.6875 39.007812 145.566406 28.109375 C 145.507812 20.675781 145.507812 20.675781 144.476562 19.53125 C 143.539062 18.535156 143.296875 18.417969 141.902344 18.417969 C 140.664062 18.417969 140.238281 18.566406 139.453125 19.320312 C 138.9375 19.800781 138.390625 20.675781 138.210938 21.277344 C 137.996094 21.9375 137.9375 25.519531 137.996094 30.910156 C 138.089844 38.734375 138.148438 39.546875 138.664062 40.332031 C 139.722656 41.867188 141.8125 42.46875 143.449219 41.714844 Z M 143.449219 41.714844 " fill-opacity="1" fill-rule="nonzero"></path><path fill="rgb(0%, 61.959839%, 98.81897%)" d="M 195.304688 47.796875 C 193.367188 47.464844 191.792969 46.5625 190.007812 44.753906 C 187.285156 41.988281 187.253906 41.835938 187.34375 29.824219 C 187.433594 19.710938 187.433594 19.621094 188.160156 18.117188 C 190.402344 13.660156 195.214844 11.554688 199.90625 13.027344 C 201.269531 13.449219 202.027344 13.960938 203.539062 15.4375 C 205.144531 17.0625 205.507812 17.632812 206.054688 19.410156 C 206.660156 21.367188 206.691406 22.058594 206.597656 30.9375 C 206.507812 40.390625 206.507812 40.390625 205.722656 42.046875 C 203.8125 46.050781 199.394531 48.488281 195.304688 47.796875 Z M 199.332031 41.023438 C 200.453125 40 200.453125 40 200.542969 30.636719 C 200.632812 20.28125 200.605469 20.011719 198.695312 18.867188 C 197.457031 18.117188 196.183594 18.117188 194.941406 18.867188 C 193.15625 19.921875 193.035156 20.675781 193.035156 30.214844 C 193.035156 39.730469 193.15625 40.359375 194.972656 41.476562 C 196.488281 42.378906 198 42.226562 199.332031 41.023438 Z M 199.332031 41.023438 " fill-opacity="1" fill-rule="nonzero"></path><path fill="rgb(0%, 61.959839%, 98.81897%)" d="M 261 47.796875 C 258.09375 47.285156 255.582031 45.328125 254.128906 42.40625 C 253.128906 40.390625 253.128906 40.390625 253.128906 30.15625 C 253.128906 19.921875 253.128906 19.921875 254.007812 18.144531 C 255.035156 16.039062 256.671875 14.382812 258.667969 13.417969 C 260.667969 12.425781 264.964844 12.394531 266.753906 13.359375 C 270.113281 15.136719 272.113281 18.324219 272.292969 22.269531 C 272.414062 24.585938 272.414062 24.585938 269.507812 24.585938 C 266.601562 24.585938 266.601562 24.585938 266.601562 23.171875 C 266.601562 20.523438 264.875 18.265625 262.847656 18.265625 C 262.394531 18.265625 261.574219 18.445312 261 18.6875 C 259.152344 19.46875 259.03125 20.164062 259.03125 30.1875 C 259.03125 35.363281 259.152344 39.335938 259.335938 39.789062 C 260.214844 42.046875 262.9375 42.769531 264.816406 41.234375 C 266.027344 40.210938 266.601562 38.855469 266.601562 36.929688 C 266.601562 35.425781 266.601562 35.425781 269.507812 35.425781 C 272.414062 35.425781 272.414062 35.425781 272.292969 38.074219 C 272.140625 41.292969 271.414062 43.011719 269.296875 45.117188 C 267.054688 47.34375 264.089844 48.308594 261 47.796875 Z M 261 47.796875 " fill-opacity="1" fill-rule="nonzero"></path><path fill="rgb(0%, 61.959839%, 98.81897%)" d="M 287.1875 47.796875 C 284.34375 47.195312 281.558594 45.058594 280.253906 42.40625 C 279.527344 40.992188 278.800781 36.75 279.105469 35.90625 C 279.285156 35.484375 279.679688 35.425781 282.101562 35.484375 C 284.917969 35.574219 284.917969 35.574219 285.097656 37.53125 C 285.191406 38.613281 285.433594 39.789062 285.613281 40.148438 C 287.066406 42.800781 290.761719 42.679688 292.183594 39.9375 C 293.273438 37.863281 292.484375 36.054688 289.972656 34.640625 C 282.859375 30.667969 281.40625 29.492188 280.132812 26.753906 C 279.621094 25.609375 279.5 24.769531 279.46875 22.328125 C 279.46875 19.5 279.527344 19.230469 280.40625 17.664062 C 284.34375 10.742188 294.152344 11.011719 297.542969 18.117188 C 298.296875 19.742188 298.390625 20.222656 298.390625 23.171875 L 298.390625 26.394531 L 295.511719 26.394531 C 292.636719 26.394531 292.636719 26.394531 292.636719 23.773438 C 292.636719 20.765625 292.121094 19.53125 290.546875 18.71875 C 287.21875 17.03125 283.917969 20.703125 285.492188 24.375 C 286.007812 25.609375 286.855469 26.332031 289.308594 27.65625 C 290.398438 28.261719 291.972656 29.101562 292.789062 29.554688 C 294.785156 30.636719 297.117188 32.867188 297.8125 34.371094 C 298.207031 35.242188 298.390625 36.265625 298.390625 38.164062 C 298.390625 40.992188 297.8125 42.617188 295.96875 44.816406 C 294.210938 46.921875 289.941406 48.367188 287.1875 47.796875 Z M 287.1875 47.796875 " fill-opacity="1" fill-rule="nonzero"></path><path fill="rgb(0%, 61.959839%, 98.81897%)" d="M 28.953125 30.277344 L 28.953125 13.117188 L 35.550781 13.207031 C 42.121094 13.300781 42.121094 13.300781 43.847656 14.292969 C 47.085938 16.160156 48.933594 19.230469 48.933594 22.78125 C 48.933594 24.949219 48.023438 27.539062 46.722656 29.011719 C 45.964844 29.886719 45.84375 30.15625 46.148438 30.546875 C 48.175781 33.347656 48.265625 33.707031 48.386719 41.144531 L 48.476562 47.3125 L 45.542969 47.40625 L 42.574219 47.496094 L 42.574219 41.746094 C 42.574219 35.542969 42.484375 35.0625 40.910156 33.617188 C 40.214844 32.957031 39.789062 32.867188 37.398438 32.773438 L 34.703125 32.65625 L 34.703125 47.464844 L 28.953125 47.464844 Z M 41.273438 26.09375 C 43.148438 24.980469 43.726562 22.601562 42.574219 20.734375 C 41.726562 19.351562 40.363281 18.867188 37.277344 18.867188 L 34.703125 18.867188 L 34.703125 26.695312 L 37.519531 26.695312 C 39.757812 26.695312 40.484375 26.574219 41.273438 26.09375 Z M 41.273438 26.09375 " fill-opacity="1" fill-rule="nonzero"></path><path fill="rgb(0%, 61.959839%, 98.81897%)" d="M 61.648438 40.300781 C 61.648438 33.167969 61.648438 33.167969 58.589844 23.984375 C 56.925781 18.929688 55.441406 14.441406 55.289062 13.992188 C 55.015625 13.148438 55.015625 13.148438 58.042969 13.148438 C 60.496094 13.148438 61.042969 13.238281 61.042969 13.601562 C 61.042969 13.992188 63.222656 22.058594 64.128906 24.980469 C 64.3125 25.582031 64.582031 26.09375 64.703125 26.09375 C 64.824219 26.09375 65.066406 25.519531 65.21875 24.828125 C 65.703125 22.871094 67.640625 15.765625 68.066406 14.472656 C 68.457031 13.300781 68.457031 13.300781 71.363281 13.207031 L 74.269531 13.117188 L 71.0625 22.390625 C 67.851562 31.660156 67.851562 31.660156 67.761719 39.578125 L 67.671875 47.464844 L 61.648438 47.464844 Z M 61.648438 40.300781 " fill-opacity="1" fill-rule="nonzero"></path><path fill="rgb(0%, 61.959839%, 98.81897%)" d="M 81.324219 35.964844 C 81.324219 29.613281 81.417969 21.878906 81.539062 18.777344 L 81.71875 13.117188 L 88.105469 13.207031 C 94.375 13.300781 94.523438 13.328125 96.039062 14.113281 C 97.824219 15.046875 99.308594 16.640625 100.214844 18.535156 C 100.730469 19.679688 100.851562 20.492188 100.851562 23.382812 C 100.851562 26.664062 100.792969 26.933594 99.882812 28.832031 C 98.761719 31.089844 96.796875 33.074219 94.765625 33.917969 C 93.707031 34.371094 92.679688 34.519531 90.378906 34.519531 L 87.378906 34.519531 L 87.378906 47.464844 L 81.324219 47.464844 Z M 93.011719 28.230469 C 94.828125 27.117188 95.796875 23.445312 94.859375 21.1875 C 94.132812 19.46875 92.859375 18.867188 89.894531 18.867188 L 87.378906 18.867188 L 87.378906 28.800781 L 89.742188 28.800781 C 91.496094 28.800781 92.316406 28.652344 93.011719 28.230469 Z M 93.011719 28.230469 " fill-opacity="1" fill-rule="nonzero"></path><path fill="rgb(0%, 61.959839%, 98.81897%)" d="M 113.324219 47.253906 C 113.203125 47.164062 113.113281 40.722656 113.113281 32.957031 L 113.113281 18.867188 L 106.453125 18.867188 L 106.453125 13.148438 L 125.828125 13.148438 L 125.828125 18.867188 L 119.167969 18.867188 L 119.167969 47.464844 L 116.351562 47.464844 C 114.777344 47.464844 113.414062 47.375 113.324219 47.253906 Z M 113.324219 47.253906 " fill-opacity="1" fill-rule="nonzero"></path><path fill="rgb(0%, 61.959839%, 98.81897%)" d="M 159.734375 30.308594 L 159.734375 13.148438 L 165.789062 13.148438 L 165.789062 26.695312 L 173.359375 26.695312 L 173.359375 13.148438 L 179.109375 13.148438 L 179.109375 47.464844 L 173.359375 47.464844 L 173.359375 32.714844 L 165.789062 32.714844 L 165.730469 40.03125 L 165.636719 47.3125 L 162.703125 47.40625 L 159.734375 47.496094 Z M 159.734375 30.308594 " fill-opacity="1" fill-rule="nonzero"></path><path fill="rgb(0%, 61.959839%, 98.81897%)" d="M 214.773438 45.75 C 214.710938 44.785156 214.710938 37.050781 214.773438 28.5625 L 214.832031 13.117188 L 217.800781 13.207031 L 220.738281 13.300781 L 220.617188 27.386719 L 220.496094 41.445312 L 231.179688 41.445312 L 231.179688 47.464844 L 223.007812 47.464844 C 214.863281 47.464844 214.863281 47.464844 214.773438 45.75 Z M 214.773438 45.75 " fill-opacity="1" fill-rule="nonzero"></path><path fill="rgb(0%, 61.959839%, 98.81897%)" d="M 238.992188 45.75 C 238.960938 44.785156 238.929688 37.050781 238.992188 28.589844 L 239.082031 13.148438 L 244.804688 13.148438 L 244.804688 47.464844 L 241.957031 47.464844 C 239.113281 47.464844 239.113281 47.464844 238.992188 45.75 Z M 238.992188 45.75 " fill-opacity="1" fill-rule="nonzero"></path></svg>